{"title":"Sairat 2016 Marathi 1080p Upscaled DVDRip x264 AAC 5.1 [TMB]","uid":15780216,"size":2113195123,"categoryP":"video","categoryS":"movies","magnet":"?xt=urn:btih:2922930f052ba53389c353ea99b35b473df85d00&amp;dn=Sairat+2016+Marathi+1080p+Upscaled+DVDRip+x264+AAC+5.1+%5BTMB%5D&amp;tr=udp%3A%2F%2Ftracker.leechers-paradise.org%3A6969&amp;tr=udp%3A%2F%2Fzer0day.ch%3A1337&amp;tr=udp%3A%2F%2Fopen.demonii.com%3A1337&amp;tr=udp%3A%2F%2Ftracker.coppersurfer.tk%3A6969&amp;tr=udp%3A%2F%2Fexodus.desync.com%3A6969","seeders":11,"leechers":9,"uploader":"Manoj_vb","files":2,"time":1473284408,"description":"http://i1306.photobucket.com/albums/s570/zyx55e/44_zpsc46e809d.gif\r\n \nhttp://s25.postimg.org/qw980xywv/Sairat_Aattach_Baya_Ka_Baavarala_Song_Promo_1200.jpg\r\n \nhttps://postimg.org/image/bn6m6ucxn/\r\n \nhttps://postimg.org/image/l906n543f/\r\n \nhttps://postimg.org/image/5c604612z/\r\n \nhttps://postimg.org/image/p81zjpi4b/\r\n \nhttps://postimg.org/image/m2hdthzi3/\r\n \nhttps://postimg.org/image/40y8vp5h7/\r\n \nhttps://postimg.org/image/xhduy4buj/\r\n \nhttps://postimg.org/image/vqutwmubf/\r\n \nhttps://postimg.org/image/rvrfu2b5n/\r\n \nhttps://postimg.org/image/ajr38mhob/\r\n \nhttp://i1306.photobucket.com/albums/s570/zyx55e/oie_11162011MOJeDGQI_zpsc25b2b81.gif\r\n\r\nGeneral\r\nComplete name               : Sairat 2016 1080p Upscaled DVDRip x264 AAC 5.1 [TMB].mp4\r\nFormat                      : MPEG-4\r\nFormat profile              : Base Media / Version 2\r\nCodec ID                    : mp42 (isom/iso2/avc1/mp41)\r\nFile size                   : 1.96 GiB\r\nDuration                    : 2 h 53 min\r\nOverall bit rate mode       : Variable\r\nOverall bit rate            : 1 610 kb/s\r\n\r\nVideo\r\nFormat                      : AVC\r\nFormat/Info                 : Advanced Video Codec\r\nFormat profile              :   \r\nFormat settings, CABAC      : Yes\r\nFormat settings, ReFrames   : 4 frames\r\nCodec ID                    : avc1\r\nCodec ID/Info               : Advanced Video Coding\r\nDuration                    : 2 h 53 min\r\nBit rate                    : 1 223 kb/s\r\nWidth                       : 1 920 pixels\r\nHeight                      : 960 pixels\r\nDisplay aspect ratio        : 2.40:1\r\nFrame rate mode             : Variable\r\nFrame rate                  : 23.976 (23976/1000) FPS\r\nMinimum frame rate          : 19.978 FPS\r\nMaximum frame rate          : 29.970 FPS\r\nColor space                 : YUV\r\nChroma subsampling          : 4:2:0\r\nBit depth                   : 8 bits\r\nScan type                   : Progressive\r\nBits/(Pixel*Frame)          : 0.028\r\nStream size                 : 1.49 GiB (76%)\r\nWriting library             : x264 core 142 r2479 dd79a61\r\n\r\nAudio\r\nFormat                      : AAC\r\nFormat/Info                 : Advanced Audio Codec\r\nFormat profile              : LC\r\nCodec ID                    : 40\r\nDuration                    : 2 h 53 min\r\nBit rate mode               : Variable\r\nBit rate                    : 384 kb/s\r\nChannel(s)                  : 2 channels\r\nChannel(s)_Original         : 6 channels\r\nChannel positions           : Front: L C R, Side: L R, LFE\r\nSampling rate               : 48.0 kHz\r\nFrame rate                  : 46.875 FPS (1024 spf)\r\nCompression mode            : Lossy\r\nStream size                 : 473 MiB (24%)\r\nTitle                       : Surround / Surround\r\nLanguage                    : Marathi\r\n\r\nRipper : Manojvb\r\n\r\nSource   \r\n\r\nSample in Torrent...\r\n\r\nSeeding 24x7... Extreme Seeding...\r\n\r\n \nhttp://i1306.photobucket.com/albums/s570/zyx55e/oie_1117625zVIGKvnK_zpsc8b6e055.gif","torrent":{"xt":"urn:btih:2922930f052ba53389c353ea99b35b473df85d00","amp;dn":"Sairat+2016+Marathi+1080p+Upscaled+DVDRip+x264+AAC+5.1+%5BTMB%5D","amp;tr":["udp%3A%2F%2Ftracker.leechers-paradise.org%3A6969","udp%3A%2F%2Fzer0day.ch%3A1337","udp%3A%2F%2Fopen.demonii.com%3A1337","udp%3A%2F%2Ftracker.coppersurfer.tk%3A6969","udp%3A%2F%2Fexodus.desync.com%3A6969"],"infoHash":"2922930f052ba53389c353ea99b35b473df85d00","infoHashBuffer":{"type":"Buffer","data":[41,34,147,15,5,43,165,51,137,195,83,234,153,179,91,71,61,248,93,0]},"announce":[],"urlList":[]}}